<?xml version="1.0" encoding="UTF-8"?>
<svg id="Layer_1" data-name="Layer 1" xmlns="http://www.w3.org/2000/svg" viewBox="0 0 115.5 113.39" height="115.5px" width="113.39px">
  <defs>
    <style>
      .cls-1 {
        color-scheme: light dark;
        fill: light-dark(#141414, #f2efed);
      }
    </style>
  </defs>
  <path class="cls-1" d="M115.5,30.21c0-16.66-13.55-30.21-30.21-30.21H0v113.39h60.43v-28.61c9.78,17.07,28.17,28.61,49.22,28.61h3.74v-60.43h-8.24c6.34-5.54,10.36-13.68,10.36-22.74ZM52.96,105.91H7.47v-45.48h45.48v45.48ZM105.91,60.43v45.34c-24.17-1.82-43.52-21.17-45.34-45.34h45.34ZM85.29,52.96H7.47V7.47s77.82,0,77.82,0c12.54,0,22.74,10.2,22.74,22.74s-10.2,22.74-22.74,22.74Z"/>
</svg>
