<?xml version="1.0" encoding="UTF-8"?>
<svg id="Layer_1" data-name="Layer 1" xmlns="http://www.w3.org/2000/svg" viewBox="0 0 495.43 113.39" width="495.43px" height="113.39px">
  <defs>
    <style>
      .cls-1 {
        fill: #f2efed;
      }
    </style>
  </defs>
  <path class="cls-1" d="M254.7,60.43h26.48v52.96h60.43v-3.74c0-21.04-11.54-39.43-28.61-49.21h55.09V0h-113.39v60.43ZM333.99,105.91h-45.34v-45.34c24.17,1.82,43.52,21.17,45.34,45.34ZM262.17,7.47h98.44v45.48h-98.44V7.47Z"/>
  <path class="cls-1" d="M127.35,113.39h113.38V0h-113.38v113.39ZM187.78,7.47h45.48v98.44h-45.48v-13.91c17.83-1.87,31.77-16.99,31.77-35.31s-13.94-33.44-31.77-35.31V7.47ZM212.08,56.69c0,15.46-12.58,28.04-28.04,28.04s-28.04-12.58-28.04-28.04,12.58-28.04,28.04-28.04,28.04,12.58,28.04,28.04ZM134.82,7.47h45.48v13.91c-17.83,1.87-31.77,16.99-31.77,35.31s13.94,33.44,31.77,35.31v13.91h-45.48V7.47Z"/>
  <path class="cls-1" d="M382.05,0v113.39h113.38V0h-113.38ZM435.01,105.91h-45.48V7.47h45.48v13.91c-17.83,1.87-31.77,16.99-31.77,35.31s13.94,33.44,31.77,35.31v13.91ZM410.7,56.69c0-15.46,12.58-28.04,28.04-28.04s28.04,12.58,28.04,28.04-12.58,28.04-28.04,28.04-28.04-12.58-28.04-28.04ZM487.96,105.91h-45.48v-13.91c17.83-1.87,31.77-16.99,31.77-35.31s-13.94-33.44-31.77-35.31V7.47h45.48v98.44Z"/>
  <path class="cls-1" d="M115.5,30.22C115.5,13.56,101.95,0,85.29,0H0v113.39h60.43v-28.61c9.78,17.07,28.17,28.61,49.22,28.61h3.74v-60.43h-8.24c6.34-5.54,10.36-13.68,10.36-22.74ZM52.96,105.91H7.47v-45.48h45.48v45.48ZM105.91,60.43v45.34c-24.17-1.82-43.52-21.17-45.34-45.34h45.34ZM85.29,52.96H7.47V7.47s77.82,0,77.82,0c12.54,0,22.74,10.2,22.74,22.74s-10.2,22.74-22.74,22.74Z"/>
</svg>
