<?xml version="1.0" encoding="UTF-8" standalone="no"?>
<svg
   id="Layer_1"
   data-name="Layer 1"
   viewBox="0 0 497.89 200"
   version="1.1"
   sodipodi:docname="Roto_Logo_Chaos_Black.svg"
   width="497.89001"
   height="200"
   inkscape:version="1.4.4 (dcaf3e7d9e, 2026-05-05)"
   xmlns:inkscape="http://www.inkscape.org/namespaces/inkscape"
   xmlns:sodipodi="http://sodipodi.sourceforge.net/DTD/sodipodi-0.dtd"
   xmlns="http://www.w3.org/2000/svg"
   xmlns:svg="http://www.w3.org/2000/svg">
  <sodipodi:namedview
     id="namedview4"
     pagecolor="#ffffff"
     bordercolor="#000000"
     borderopacity="0.25"
     inkscape:showpageshadow="2"
     inkscape:pageopacity="0.0"
     inkscape:pagecheckerboard="0"
     inkscape:deskcolor="#d1d1d1"
     inkscape:zoom="1.7092189"
     inkscape:cx="235.19516"
     inkscape:cy="176.39637"
     inkscape:window-width="2534"
     inkscape:window-height="1403"
     inkscape:window-x="0"
     inkscape:window-y="0"
     inkscape:window-maximized="1"
     inkscape:current-layer="Layer_1" />
  <defs
     id="defs1">
    <style
       id="style1">
      .cls-1 {
        color-scheme: light dark;
        fill: light-dark(#141414, #f2efed);
      }
    </style>
  </defs>
  <path
     class="cls-1"
     d="m 255.63901,86.665452 h 23.60491 v 47.209828 h 53.87265 v -3.34032 c 0,-18.75923 -10.28818,-35.157959 -25.51113,-43.869508 h 49.11604 V 32.792807 H 255.63901 Z m 70.69003,40.547008 h -40.4223 V 86.790157 c 21.54728,1.621168 38.80113,18.875023 40.4223,40.422303 z M 262.30183,39.455627 h 87.75683 v 40.547005 h -87.75683 z"
     id="path1"
     style="stroke-width:0.890751" />
  <path
     class="cls-1"
     d="m 152.99772,137.95492 100.69945,-8.80953 -8.80953,-100.699451 -100.69945,8.809532 z m 45.43723,-98.757611 40.39558,-3.536283 7.65155,87.427254 -40.39557,3.53628 -1.07781,-12.35472 C 220.69483,111.22347 231.90939,96.704221 230.48419,80.4391 229.05898,64.173979 215.50175,51.828164 199.52167,51.543124 l -1.07781,-12.354722 z m 25.40423,41.820779 c 1.20252,13.72648 -8.98768,25.876332 -22.72307,27.078842 -13.72648,1.20252 -25.87633,-8.996588 -27.07884,-22.723067 -1.20251,-13.72648 8.98768,-25.876329 22.72307,-27.078843 13.72648,-1.202515 25.87633,8.987681 27.07884,22.723068 z m -72.4359,-37.705507 40.39557,-3.536283 1.07781,12.354722 c -15.68613,3.04637 -26.90069,17.565618 -25.47549,33.830739 1.4252,16.265121 14.98244,28.610931 30.96252,28.895971 l 1.07781,12.35473 -40.39558,3.53628 -7.65155,-87.427252 z"
     id="path2"
     style="stroke-width:0.890751" />
  <path
     class="cls-1"
     d="M 370.16292,42.457459 359.5986,142.98766 460.12881,153.55198 470.69312,53.021771 Z m 37.08198,98.837781 -40.32432,-4.23998 9.17474,-87.275824 40.32432,4.239977 -1.29159,12.327999 c -15.98008,0 -29.7511,12.105312 -31.46134,28.343711 -1.71024,16.238397 9.246,30.944707 24.87869,34.267207 l -1.29159,12.328 z M 390.28499,95.385909 c 1.44302,-13.708665 13.76211,-23.685081 27.47077,-22.242063 13.70867,1.443017 23.68509,13.762109 22.24207,27.470774 -1.44302,13.70866 -13.76211,23.68508 -27.47078,22.24206 -13.70866,-1.44302 -23.68508,-13.76211 -22.24206,-27.470771 z m 63.91142,50.844091 -40.32432,-4.23998 1.29159,-12.328 c 15.98008,0 29.7511,-12.10531 31.46134,-28.35261 1.71024,-16.238403 -9.246,-30.944709 -24.87869,-34.267211 l 1.29159,-12.328 40.32432,4.239977 L 454.1875,146.23 Z"
     id="path3"
     style="stroke-width:0.890751" />
  <path
     class="cls-1"
     d="m 136.24269,97.85329 c 1.29159,-14.795381 -9.69138,-27.889427 -24.48676,-29.181016 l -75.749502,-6.627191 -8.809532,100.699447 53.667773,4.69426 2.226879,-25.41314 c 7.357607,15.92664 22.794332,27.59548 41.491202,29.23446 l 3.3225,0.29395 4.69426,-53.66777 -7.31307,-0.64134 c 6.05711,-4.42704 10.26146,-11.34818 10.96515,-19.39166 z m -61.43513,62.37041 -40.395577,-3.53628 3.536283,-40.39558 40.395577,3.53629 z m 50.56796,-36.2803 -3.52738,40.27087 C 100.52356,160.71362 84.837421,142.02565 85.104646,120.42493 l 40.270874,3.52738 z m 4.23107,-26.669098 c -0.97092,11.134388 -10.83154,19.400568 -21.96593,18.429648 l -69.113406,-6.0482 3.536284,-40.39558 69.113402,6.048202 c 11.13439,0.970919 19.40057,10.831537 18.42965,21.96593 z"
     id="path4"
     style="stroke-width:0.890751" />
</svg>
